<svg xmlns="http://www.w3.org/2000/svg" xmlns:xlink="http://www.w3.org/1999/xlink" viewBox="0 0 324.97 207.79"><defs><linearGradient id="linear-gradient" x1="439.33" y1="204.74" x2="439.33" y2="149.52" gradientUnits="userSpaceOnUse"><stop offset="0" stop-color="#c5c5c5"/><stop offset="1" stop-color="#5b5b5a"/></linearGradient><linearGradient id="linear-gradient-2" x1="326.76" y1="154.55" x2="362.25" y2="154.55" xlink:href="#linear-gradient"/><linearGradient id="linear-gradient-3" x1="227.86" y1="82.01" x2="265.24" y2="82.01" xlink:href="#linear-gradient"/><linearGradient id="linear-gradient-4" x1="104.47" y1="13.6" x2="201.11" y2="13.6" xlink:href="#linear-gradient"/><linearGradient id="linear-gradient-5" x1="232.77" y1="-0.02" x2="232.77" y2="63.58" xlink:href="#linear-gradient"/><linearGradient id="linear-gradient-6" x1="81.71" y1="77.08" x2="81.71" y2="132.34" xlink:href="#linear-gradient"/><linearGradient id="linear-gradient-7" x1="436.07" y1="235.29" x2="458.09" y2="235.29" xlink:href="#linear-gradient"/><linearGradient id="linear-gradient-8" x1="472.87" y1="189.4" x2="455.77" y2="203.58" gradientUnits="userSpaceOnUse"><stop offset="0.04" stop-color="#ff5773"/><stop offset="1" stop-color="#ff5773" stop-opacity="0"/></linearGradient><linearGradient id="linear-gradient-9" x1="474.48" y1="166.71" x2="476.43" y2="190.77" xlink:href="#linear-gradient-8"/><linearGradient id="linear-gradient-10" x1="369.72" y1="221.25" x2="392.05" y2="221.25" xlink:href="#linear-gradient"/><linearGradient id="linear-gradient-11" x1="376.52" y1="160.93" x2="374.9" y2="174.57" xlink:href="#linear-gradient-8"/></defs><g style="isolation:isolate"><g id="OBJECTS"><path d="M540.34,325.18H351.15a2.29,2.29,0,0,1-2-2.5h0a2.29,2.29,0,0,1,2-2.49H540.34a2.29,2.29,0,0,1,2,2.49h0A2.29,2.29,0,0,1,540.34,325.18Z" transform="translate(-263.18 -127.88)" style="fill:#c1ccfa"/><path d="M401.23,331.25c0,2.44-7.24,4.42-16.17,4.42s-16.18-2-16.18-4.42,7.24-4.41,16.18-4.41S401.23,328.81,401.23,331.25Z" transform="translate(-263.18 -127.88)" style="fill:#c1ccfa"/><path d="M289.14,316.92s-4.58-31.68,27.34-55.4c30.46-22.62,22.57-92.86,57.32-92.86,42.5,0,44.52,26.5,78.86,27.32,26.48.63,47.87,24.82,59.51,54.91s54.63,29.81,61.74,66Z" transform="translate(-263.18 -127.88)" style="fill:#b6d4ca"/><path d="M562.58,227C556,223,549.91,230.33,548.48,242s-.6,14-3.1,15c-2.67,1-10.23-21.66-17.51-12.79-5.69,6.94,1.64,17.81,6,21.36,4.57,3.68,5.52,8.29,3.45,10.4s-5.45-4.49-10.09-9.43c-6.21-6.61-12.57,5.2-7.91,14.2s15,10.73,13.47,16.58-6.47-2.11-9.7,0-.78,19.61-.78,19.61h28.72s18.54-2.16,16.65-10.72c-1.67-7.53-13-.85-13.8-7.91-.61-5.53,22.76,6.5,23.9-7.85,1.25-15.82-21.76-6.76-22.48-10.36-1.94-9.65,23.82-2.36,22.21-16.69-2.33-20.69-19.11,7.91-20.92-.87S574.36,234,562.58,227Z" transform="translate(-263.18 -127.88)" style="fill:#337558"/><path d="M562.58,227s-19.36,49.88-25.22,90" transform="translate(-263.18 -127.88)" style="fill:none;stroke:#fff;stroke-linecap:round;stroke-linejoin:round;stroke-width:0.25px"/><path d="M577.27,261.52s-8.69,6.82-29.67,10.41" transform="translate(-263.18 -127.88)" style="fill:none;stroke:#fff;stroke-linecap:round;stroke-linejoin:round;stroke-width:0.25px"/><path d="M527.87,244.2s9.93,18.88,19.11,29.88" transform="translate(-263.18 -127.88)" style="fill:none;stroke:#fff;stroke-linecap:round;stroke-linejoin:round;stroke-width:0.25px"/><path d="M577.81,288.07s-19.49,3.58-34.71.56" transform="translate(-263.18 -127.88)" style="fill:none;stroke:#fff;stroke-linecap:round;stroke-linejoin:round;stroke-width:0.25px"/><path d="M519.48,267.37s12.95,20.45,22.17,27.27" transform="translate(-263.18 -127.88)" style="fill:none;stroke:#fff;stroke-linecap:round;stroke-linejoin:round;stroke-width:0.25px"/><path d="M567.35,305.09s-20.79,6.25-29.08,6.11" transform="translate(-263.18 -127.88)" style="fill:none;stroke:#fff;stroke-linecap:round;stroke-linejoin:round;stroke-width:0.25px"/><path d="M311.92,275.11c3.26-6.15-4.75-20.17,1.14-22.31,5-1.8,10.68,6.48,11.16,12.72s-.1,11,2.86,10.91,4.22-6.6,8.61-5,7.25,8,4.29,12.7-8,6.84-6.56,10.19,8.56-1.18,11.14,6.36-1.72,16.28-1.72,16.28h-32s-15.57-7.47-11.88-18c2.28-6.51,7.34-3.94,11-5.5s-10.68-11.83-9-17.95S310.22,278.3,311.92,275.11Z" transform="translate(-263.18 -127.88)" style="fill:#0aab94"/><path d="M318,260.83s8.91,28.3,11,55.87" transform="translate(-263.18 -127.88)" style="fill:none;stroke:#fff;stroke-linecap:round;stroke-linejoin:round;stroke-width:0.221301px"/><path d="M307.33,279.55s8.26,11.18,19,16.31" transform="translate(-263.18 -127.88)" style="fill:none;stroke:#fff;stroke-linecap:round;stroke-linejoin:round;stroke-width:0.221301px"/><path d="M339.43,278.91s-6,9.63-13.77,13.16" transform="translate(-263.18 -127.88)" style="fill:none;stroke:#fff;stroke-linecap:round;stroke-linejoin:round;stroke-width:0.221301px"/><path d="M305.27,300.46a60.64,60.64,0,0,0,23.52,13.24" transform="translate(-263.18 -127.88)" style="fill:none;stroke:#fff;stroke-linecap:round;stroke-linejoin:round;stroke-width:0.221301px"/><path d="M343.84,301.1s-8.52,8.28-15.32,9.93" transform="translate(-263.18 -127.88)" style="fill:none;stroke:#fff;stroke-linecap:round;stroke-linejoin:round;stroke-width:0.221301px"/><path d="M332.67,237.28c5.81-3.47,11.22,3,12.48,13.35s.54,12.44,2.75,13.24c2.37.87,9.05-19.17,15.5-11.32,5,6.14-1.45,15.77-5.34,18.9-4.05,3.26-4.89,7.34-3.06,9.21s4.82-4,8.93-8.34c5.5-5.86,11.13,4.6,7,12.57s-13.3,9.49-11.93,14.67,5.73-1.87,8.59,0,.69,17.36.69,17.36H342.86s-16.41-1.91-14.73-9.49c1.48-6.66,11.53-.76,12.21-7,.54-4.9-20.15,5.75-21.15-6.95-1.11-14,19.25-6,19.9-9.17,1.71-8.54-21.09-2.09-19.66-14.78,2.06-18.31,16.91,7,18.51-.76S322.25,243.49,332.67,237.28Z" transform="translate(-263.18 -127.88)" style="fill:#337558"/><path d="M332.67,237.28s17.14,44.15,22.33,79.64" transform="translate(-263.18 -127.88)" style="fill:none;stroke:#fff;stroke-linecap:round;stroke-linejoin:round;stroke-width:0.221301px"/><path d="M319.67,267.88s7.7,6,26.27,9.22" transform="translate(-263.18 -127.88)" style="fill:none;stroke:#fff;stroke-linecap:round;stroke-linejoin:round;stroke-width:0.221301px"/><path d="M363.4,252.55s-8.79,16.71-16.92,26.44" transform="translate(-263.18 -127.88)" style="fill:none;stroke:#fff;stroke-linecap:round;stroke-linejoin:round;stroke-width:0.221301px"/><path d="M319.19,291.38s17.25,3.17,30.73.49" transform="translate(-263.18 -127.88)" style="fill:none;stroke:#fff;stroke-linecap:round;stroke-linejoin:round;stroke-width:0.221301px"/><path d="M370.83,273.06s-11.46,18.1-19.63,24.14" transform="translate(-263.18 -127.88)" style="fill:none;stroke:#fff;stroke-linecap:round;stroke-linejoin:round;stroke-width:0.221301px"/><path d="M328.45,306.44s18.41,5.54,25.74,5.41" transform="translate(-263.18 -127.88)" style="fill:none;stroke:#fff;stroke-linecap:round;stroke-linejoin:round;stroke-width:0.221301px"/><ellipse cx="52.67" cy="70.28" rx="22.06" ry="27.72" style="fill:#738efa"/><path d="M325.62,210.47a5,5,0,0,1-2.95,2.32c-2,.48-1.31,2.13-.6,2.4a2.66,2.66,0,0,0,3.22-.41C326.82,213.55,327.1,209.45,325.62,210.47Z" transform="translate(-263.18 -127.88)" style="fill:#fff"/><path d="M314.79,213.42c1.82-1.66-.37-3.42-2.71-2.69-2.15.66-2-.12-5.17-1-4-1.14-5.1,1.16-2.52,5.16s8.27,7.16,10.09,5.37S313,215.08,314.79,213.42Z" transform="translate(-263.18 -127.88)" style="fill:#fff"/><path d="M304.44,174.43c2.31.86,5.35,2.19,6.39,4.68,2.25,5.38-2.23,11.07,2.11,11.76,4.95.79,11.15,1.42,11.34,6s-4.13,12-6.2,12.49.75-9.58-1.6-11.23-3,5.91-8.76,4c-4.67-1.54-4.38-9.57-13.6.72a35.15,35.15,0,0,1-.33-4.74C293.79,188.09,298.06,179.28,304.44,174.43Z" transform="translate(-263.18 -127.88)" style="fill:#fff"/><path d="M326.64,182.9a22.51,22.51,0,0,1,.28-8.72c6.57,4.8,11,13.74,11,24a33.93,33.93,0,0,1-1.13,8.72c-1.5,1.94-2.85,3.37-3.65,3.46-2.64.28.07-12.85-.4-18.08S327.86,188.1,326.64,182.9Z" transform="translate(-263.18 -127.88)" style="fill:#fff"/><path d="M315.85,170.44a17.43,17.43,0,0,0-3.4.36,10.37,10.37,0,0,1,3.19,6,20.19,20.19,0,0,0,2.47,8.36c1.22,2.43,3.09,3.63,3.87,2.94s-.27-2.15.14-4.35,1.71-3.5,1-7.07a19.57,19.57,0,0,1-.33-4.83A17.78,17.78,0,0,0,315.85,170.44Z" transform="translate(-263.18 -127.88)" style="fill:#fff"/><g style="opacity:0.46;mix-blend-mode:multiply"><path d="M456.14,187.14h-31.3c-1.43,0-2.58-1.45-2.58-3.25V166.78c0-1.79,1.15-3.25,2.58-3.25H448.9c1.43,0,2.59,1.46,2.59,3.25v15.66l4.8,4.09C456.51,186.71,456.4,187.14,456.14,187.14Z" transform="translate(-263.18 -127.88)" style="fill:url(#linear-gradient)"/></g><path d="M457.21,185.61H425.92c-1.43,0-2.59-1.45-2.59-3.25V165.25c0-1.8,1.16-3.25,2.59-3.25H450c1.42,0,2.58,1.45,2.58,3.25v14.23a3,3,0,0,0,.94,2.23l3.86,3.29C457.58,185.18,457.48,185.61,457.21,185.61Z" transform="translate(-263.18 -127.88)" style="fill:#fff"/><path d="M448.54,167.62H427.35a.55.55,0,0,1-.47-.6h0a.55.55,0,0,1,.47-.6h21.19a.55.55,0,0,1,.47.6h0A.55.55,0,0,1,448.54,167.62Z" transform="translate(-263.18 -127.88)" style="fill:#859cfa"/><path d="M448.54,171.48H427.35a.55.55,0,0,1-.47-.6h0a.55.55,0,0,1,.47-.6h21.19a.55.55,0,0,1,.47.6h0A.55.55,0,0,1,448.54,171.48Z" transform="translate(-263.18 -127.88)" style="fill:#859cfa"/><path d="M448.54,175.34H427.35a.55.55,0,0,1-.47-.6h0a.55.55,0,0,1,.47-.6h21.19a.55.55,0,0,1,.47.6h0A.55.55,0,0,1,448.54,175.34Z" transform="translate(-263.18 -127.88)" style="fill:#859cfa"/><path d="M448.54,179.2H427.35a.55.55,0,0,1-.47-.6h0a.55.55,0,0,1,.47-.6h21.19a.55.55,0,0,1,.47.6h0A.55.55,0,0,1,448.54,179.2Z" transform="translate(-263.18 -127.88)" style="fill:#859cfa"/><g style="opacity:0.2;mix-blend-mode:multiply"><path d="M362.25,166.61H329.41c-1.46,0-2.65-1.49-2.65-3.32V145.82c0-1.84,1.19-3.32,2.65-3.32H354c1.46,0,2.64,1.48,2.64,3.32V160a3.81,3.81,0,0,0,1.22,2.88Z" transform="translate(-263.18 -127.88)" style="fill:url(#linear-gradient-2)"/></g><path d="M360.88,165H328c-1.46,0-2.64-1.48-2.64-3.32V144.25c0-1.83,1.18-3.32,2.64-3.32H352.6c1.46,0,2.64,1.49,2.64,3.32v13.56a5,5,0,0,0,1.6,3.79Z" transform="translate(-263.18 -127.88)" style="fill:#0d3cfa"/><path d="M351.14,146.67H329.51a.56.56,0,0,1-.49-.61h0a.56.56,0,0,1,.49-.61h21.63a.57.57,0,0,1,.48.61h0A.56.56,0,0,1,351.14,146.67Z" transform="translate(-263.18 -127.88)" style="fill:#061c73"/><path d="M351.14,150.61H329.51A.56.56,0,0,1,329,150h0a.56.56,0,0,1,.49-.61h21.63a.57.57,0,0,1,.48.61h0A.56.56,0,0,1,351.14,150.61Z" transform="translate(-263.18 -127.88)" style="fill:#061c73"/><path d="M351.14,154.55H329.51a.56.56,0,0,1-.49-.61h0a.55.55,0,0,1,.49-.6h21.63a.55.55,0,0,1,.48.6h0A.56.56,0,0,1,351.14,154.55Z" transform="translate(-263.18 -127.88)" style="fill:#061c73"/><path d="M351.14,158.49H329.51a.55.55,0,0,1-.49-.6h0a.56.56,0,0,1,.49-.61h21.63a.56.56,0,0,1,.48.61h0A.55.55,0,0,1,351.14,158.49Z" transform="translate(-263.18 -127.88)" style="fill:#061c73"/><line y1="189.04" x2="324.97" y2="189.04" style="fill:none;stroke:#061c73;stroke-miterlimit:10;stroke-width:0.5px"/><path d="M418.38,236.27l-4.18-.06.09-10.08,4.18.06c2.22,0,4,2.32,4,5.1h0C422.41,234.07,420.59,236.3,418.38,236.27Z" transform="translate(-263.18 -127.88)" style="fill:none;stroke:#0d3cfa;stroke-miterlimit:10;stroke-width:0.5166649999999999px"/><path d="M417.25,237.07l1.41-12.5H404.84L406,237a1.44,1.44,0,0,0,1.28,1.43H416A1.44,1.44,0,0,0,417.25,237.07Z" transform="translate(-263.18 -127.88)" style="fill:#061c73"/><path d="M416.83,203.44s-2.23,2.89-.85,8.61c.92,3.8,1.53,6.14.67,11.22" transform="translate(-263.18 -127.88)" style="fill:none;stroke:#fff;stroke-linecap:round;stroke-linejoin:round;stroke-width:0.5166649999999999px"/><path d="M413.58,203.39s-2.23,2.9-.85,8.61c.92,3.8,1.53,6.14.67,11.23" transform="translate(-263.18 -127.88)" style="fill:none;stroke:#fff;stroke-linecap:round;stroke-linejoin:round;stroke-width:0.5166649999999999px"/><path d="M410.33,203.35s-2.23,2.89-.85,8.6c.92,3.81,1.53,6.15.66,11.23" transform="translate(-263.18 -127.88)" style="fill:none;stroke:#fff;stroke-linecap:round;stroke-linejoin:round;stroke-width:0.5166649999999999px"/><path d="M407.07,203.3s-2.22,2.89-.85,8.6c.92,3.81,1.53,6.15.67,11.23" transform="translate(-263.18 -127.88)" style="fill:none;stroke:#fff;stroke-linecap:round;stroke-linejoin:round;stroke-width:0.5166649999999999px"/><g style="opacity:0.2;mix-blend-mode:multiply"><rect x="227.86" y="58.53" width="37.38" height="46.97" rx="2.56" style="fill:url(#linear-gradient-3)"/></g><rect x="226.09" y="56.33" width="37.38" height="46.97" rx="2.56" style="fill:#fff"/><path d="M499.15,224c7.62,0,18.55.08,18.55-5.83,0-5.46-7.89-6.12-13.45-6.12s-10.09-1-10.09-3.78,7-2.52,10.41-2.52h17.2" transform="translate(-263.18 -127.88)" style="fill:none;stroke:#d7defa;stroke-miterlimit:10;stroke-width:0.447637px"/><path d="M515,191.66h0a1.39,1.39,0,0,0-2.15.64l-.7,1.43,2.66,2.06.7-1.43A2.27,2.27,0,0,0,515,191.66Z" transform="translate(-263.18 -127.88)" style="fill:#d7defa"/><polygon points="239.46 93.13 236.54 90.87 249.23 65.02 252.15 67.28 239.46 93.13" style="fill:#0d3cfa"/><path d="M514.57,196.05c.5-1,2.06.1.8,2.19-.59,1-2.45,3.68-3.26,5.34a9,9,0,0,0-.67,3.92" transform="translate(-263.18 -127.88)" style="fill:none;stroke:#0d3cfa;stroke-miterlimit:10;stroke-width:0.447637px"/><path d="M501.18,219.88l-1.45-1.14a10.67,10.67,0,0,0-.58,5.29,7,7,0,0,0,3.49-3Z" transform="translate(-263.18 -127.88)" style="fill:#0d3cfa"/><path d="M505.5,207.32l2.67,2.07a.93.93,0,0,1,.21,1.12l-5,10.14a.57.57,0,0,1-.89.26l-2.67-2.07a1,1,0,0,1-.21-1.12l5-10.13A.58.58,0,0,1,505.5,207.32Z" transform="translate(-263.18 -127.88)" style="fill:#061c73"/><rect x="104.47" y="2.45" width="96.63" height="22.3" rx="2.34" style="opacity:0.2;mix-blend-mode:multiply;fill:url(#linear-gradient-4)"/><rect x="103.08" width="96.63" height="22.3" rx="2.34" style="fill:#f80"/><path d="M438.85,143.85H375.14c-2.12,0-3.84-2.16-3.84-4.82h0c0-2.67,1.72-4.83,3.84-4.83h63.71c2.12,0,3.83,2.16,3.83,4.83h0C442.68,141.69,441,143.85,438.85,143.85Z" transform="translate(-263.18 -127.88)" style="fill:#fff"/><path d="M452.13,135.39a3.92,3.92,0,0,1,0,4.67,2.27,2.27,0,0,1-3.72,0,4,4,0,0,1,0-4.67A2.27,2.27,0,0,1,452.13,135.39Z" transform="translate(-263.18 -127.88)" style="fill:none;stroke:#fff;stroke-linecap:round;stroke-linejoin:round;stroke-width:0.96px"/><line x1="188.95" y1="12.18" x2="192.04" y2="16.08" style="fill:none;stroke:#fff;stroke-linecap:round;stroke-linejoin:round;stroke-width:0.96px"/><g style="opacity:0.2;mix-blend-mode:multiply"><rect x="214.08" y="2.33" width="37.38" height="46.97" rx="2.56" style="fill:url(#linear-gradient-5)"/></g><rect x="212.63" y="0.65" width="37.38" height="46.97" rx="2.56" style="fill:#ff9caf"/><line x1="219.49" y1="23.31" x2="219.49" y2="38.8" style="fill:none;stroke:#fff;stroke-miterlimit:10;stroke-width:0.420288px"/><path d="M481.93,165.66a4.21,4.21,0,0,0,.75,2.62,5,5,0,0,0,0-5.25A4.22,4.22,0,0,0,481.93,165.66Z" transform="translate(-263.18 -127.88)" style="fill:#ff5773"/><path d="M484.23,149.25v11.4c0,1.54,4.57,2.78,10.2,2.78s10.21-1.24,10.21-2.78v-11.4Z" transform="translate(-263.18 -127.88)" style="fill:#ff5773"/><path d="M494.43,140.39l-13.91,9.26a.8.8,0,0,0,0,1.24l13.91,9.25,13.91-9.25a.79.79,0,0,0,0-1.24Z" transform="translate(-263.18 -127.88)" style="fill:#ff5773"/><polygon points="231.25 30.84 217.48 21.68 216.41 22.39 231.25 32.27 246.09 22.39 245.02 21.68 231.25 30.84" style="fill:#fff"/><rect x="67.24" y="63.7" width="28.93" height="36.36" rx="1.98" style="opacity:0.44;mix-blend-mode:multiply;fill:url(#linear-gradient-6)"/><rect x="66.17" y="62.19" width="28.93" height="36.36" rx="1.98" style="fill:#f80"/><path d="M78.95,93.16h3.39a0,0,0,0,1,0,0v1.22a.76.76,0,0,1-.76.76H79.71a.76.76,0,0,1-.76-.76V93.16A0,0,0,0,1,78.95,93.16Z" style="fill:#b86200"/><path d="M349.49,206c0-3.92-2.54-7.1-5.67-7.1s-5.66,3.18-5.66,7.1a8.23,8.23,0,0,0,1.09,4.18,11.73,11.73,0,0,1,1.38,4.56l.16,1.41h6.07l.16-1.41a11.73,11.73,0,0,1,1.38-4.56A8.23,8.23,0,0,0,349.49,206Z" transform="translate(-263.18 -127.88)" style="fill:#fff"/><path d="M345.31,210.31v-3.78c0-.5-.21-.89-.47-.89s-.25.11-.34.28a.41.41,0,0,0-.34-.28c-.13,0-.25.11-.34.28a.41.41,0,0,0-.34-.28c-.13,0-.25.11-.34.28a.41.41,0,0,0-.34-.28c-.25,0-.46.39-.46.89v3.78" transform="translate(-263.18 -127.88)" style="fill:none;stroke:#f80;stroke-miterlimit:10;stroke-width:0.31064px"/><path d="M77.4,88.22h6.48a0,0,0,0,1,0,0V92.9a.74.74,0,0,1-.74.74h-5a.74.74,0,0,1-.74-.74V88.22A0,0,0,0,1,77.4,88.22Z" style="fill:#b86200"/><line x1="77.4" y1="89.37" x2="83.88" y2="89.37" style="fill:none;stroke:#ffdab0;stroke-miterlimit:10;stroke-width:0.17773799999999998px"/><line x1="77.4" y1="90.31" x2="83.88" y2="90.31" style="fill:none;stroke:#ffdab0;stroke-miterlimit:10;stroke-width:0.17773799999999998px"/><line x1="77.4" y1="91.26" x2="83.88" y2="91.26" style="fill:none;stroke:#ffdab0;stroke-miterlimit:10;stroke-width:0.17773799999999998px"/><line x1="77.4" y1="92.21" x2="83.88" y2="92.21" style="fill:none;stroke:#ffdab0;stroke-miterlimit:10;stroke-width:0.17773799999999998px"/><line x1="80.82" y1="65.62" x2="80.82" y2="68.1" style="fill:none;stroke:#fff;stroke-linecap:round;stroke-linejoin:round;stroke-width:0.710951px"/><line x1="75.87" y1="67.28" x2="76.86" y2="69.44" style="fill:none;stroke:#fff;stroke-linecap:round;stroke-linejoin:round;stroke-width:0.710951px"/><line x1="72.24" y1="71.84" x2="73.96" y2="73.08" style="fill:none;stroke:#fff;stroke-linecap:round;stroke-linejoin:round;stroke-width:0.710951px"/><line x1="87.37" y1="82.82" x2="89.09" y2="84.06" style="fill:none;stroke:#fff;stroke-linecap:round;stroke-linejoin:round;stroke-width:0.710951px"/><line x1="70.92" y1="78.07" x2="72.9" y2="78.07" style="fill:none;stroke:#fff;stroke-linecap:round;stroke-linejoin:round;stroke-width:0.710951px"/><line x1="88.39" y1="78.07" x2="90.37" y2="78.07" style="fill:none;stroke:#fff;stroke-linecap:round;stroke-linejoin:round;stroke-width:0.710951px"/><line x1="72.24" y1="84.29" x2="73.96" y2="83.05" style="fill:none;stroke:#fff;stroke-linecap:round;stroke-linejoin:round;stroke-width:0.710951px"/><line x1="87.37" y1="73.31" x2="89.09" y2="72.07" style="fill:none;stroke:#fff;stroke-linecap:round;stroke-linejoin:round;stroke-width:0.710951px"/><line x1="84.6" y1="69.83" x2="85.59" y2="67.68" style="fill:none;stroke:#fff;stroke-linecap:round;stroke-linejoin:round;stroke-width:0.710951px"/><path d="M193.7,172.59h74.65a3.93,3.93,0,0,1,3.93,3.93v11.11a3.93,3.93,0,0,1-3.93,3.93H193.7a0,0,0,0,1,0,0v-19A0,0,0,0,1,193.7,172.59Z" style="fill:#ffd6dd"/><rect x="92.05" y="172.59" width="101.65" height="18.97" style="fill:#fff"/><line x1="92.05" y1="176.92" x2="269.2" y2="176.92" style="fill:none;stroke:#fff;stroke-miterlimit:10;stroke-width:0.5px"/><line x1="92.05" y1="178.98" x2="269.2" y2="178.98" style="fill:none;stroke:#fff;stroke-miterlimit:10;stroke-width:0.5px"/><line x1="92.05" y1="181.04" x2="269.2" y2="181.04" style="fill:none;stroke:#fff;stroke-miterlimit:10;stroke-width:0.5px"/><line x1="92.05" y1="183.1" x2="269.2" y2="183.1" style="fill:none;stroke:#fff;stroke-miterlimit:10;stroke-width:0.5px"/><line x1="92.05" y1="185.16" x2="269.2" y2="185.16" style="fill:none;stroke:#fff;stroke-miterlimit:10;stroke-width:0.5px"/><line x1="92.05" y1="187.22" x2="269.2" y2="187.22" style="fill:none;stroke:#fff;stroke-miterlimit:10;stroke-width:0.5px"/><line x1="92.05" y1="176.92" x2="193.7" y2="176.92" style="fill:none;stroke:#ffd6dd;stroke-miterlimit:10;stroke-width:0.5px"/><line x1="92.05" y1="178.98" x2="193.7" y2="178.98" style="fill:none;stroke:#ffd6dd;stroke-miterlimit:10;stroke-width:0.5px"/><line x1="92.05" y1="181.04" x2="193.7" y2="181.04" style="fill:none;stroke:#ffd6dd;stroke-miterlimit:10;stroke-width:0.5px"/><line x1="92.05" y1="183.1" x2="193.7" y2="183.1" style="fill:none;stroke:#ffd6dd;stroke-miterlimit:10;stroke-width:0.5px"/><line x1="92.05" y1="185.16" x2="193.7" y2="185.16" style="fill:none;stroke:#ffd6dd;stroke-miterlimit:10;stroke-width:0.5px"/><line x1="92.05" y1="187.22" x2="193.7" y2="187.22" style="fill:none;stroke:#ffd6dd;stroke-miterlimit:10;stroke-width:0.5px"/><path d="M532,321.6H456.88v-4.34H532c.88,0,2.57-2.85,2.57-7.31s-1.69-7.32-2.57-7.32H456.88v-4.34H532c3.32,0,6,5.22,6,11.66S535.29,321.6,532,321.6Z" transform="translate(-263.18 -127.88)" style="fill:#ff2b4f"/><rect x="90.32" y="189.39" width="103.38" height="4.34" style="fill:#8a2032"/><rect x="90.32" y="170.42" width="103.38" height="4.34" style="fill:#8a2032"/><path d="M532.42,238.46H484.13v28h48.29c4,0,7.22-6.26,7.22-14S536.41,238.46,532.42,238.46Z" transform="translate(-263.18 -127.88)" style="fill:#738efa"/><path d="M520,238.46H500.66c4,0,7.22,6.26,7.22,14s-3.23,14-7.22,14H520c4,0,7.23-6.26,7.23-14S524,238.46,520,238.46Z" transform="translate(-263.18 -127.88)" style="fill:#0d3cfa"/><line x1="226.09" y1="113.72" x2="271.45" y2="113.72" style="fill:none;stroke:#061c73;stroke-miterlimit:10;stroke-width:0.5px"/><path d="M121,112.67H219.5a7.27,7.27,0,0,1,7.27,7.27v9.25a7.27,7.27,0,0,1-7.27,7.27H121a0,0,0,0,1,0,0V112.67a0,0,0,0,1,0,0Z" style="fill:#d7defa"/><path d="M485.73,238.46H382.84v5.2H485.73c1.06,0,3.08,3.42,3.08,8.78s-2,8.78-3.08,8.78H382.84v5.2H485.73c4,0,7.22-6.26,7.22-14S489.72,238.46,485.73,238.46Z" transform="translate(-263.18 -127.88)" style="fill:#0d3cfa"/><line x1="121.03" y1="118.37" x2="220.95" y2="118.37" style="fill:none;stroke:#738efa;stroke-miterlimit:10;stroke-width:0.540107px"/><line x1="121.03" y1="120.85" x2="220.95" y2="120.85" style="fill:none;stroke:#738efa;stroke-miterlimit:10;stroke-width:0.540107px"/><line x1="121.03" y1="123.33" x2="220.95" y2="123.33" style="fill:none;stroke:#738efa;stroke-miterlimit:10;stroke-width:0.540107px"/><line x1="121.03" y1="125.8" x2="220.95" y2="125.8" style="fill:none;stroke:#738efa;stroke-miterlimit:10;stroke-width:0.540107px"/><line x1="121.03" y1="128.28" x2="220.95" y2="128.28" style="fill:none;stroke:#738efa;stroke-miterlimit:10;stroke-width:0.540107px"/><line x1="121.03" y1="130.76" x2="220.95" y2="130.76" style="fill:none;stroke:#738efa;stroke-miterlimit:10;stroke-width:0.540107px"/><path d="M357.69,265.83h85.63v32.46H357.69c-4.62,0-8.38-7.26-8.38-16.23S353.07,265.83,357.69,265.83Z" transform="translate(-263.18 -127.88)" style="fill:#bd6400"/><path d="M376.61,265.83h44.55c-4.63,0-8.38,7.27-8.38,16.23s3.75,16.23,8.38,16.23H376.61c-4.63,0-8.38-7.26-8.38-16.23S372,265.83,376.61,265.83Z" transform="translate(-263.18 -127.88)" style="fill:#f80"/><path d="M436.57,268.25H535.2a8.44,8.44,0,0,1,8.44,8.44v10.74a8.44,8.44,0,0,1-8.44,8.44H436.57a0,0,0,0,1,0,0V268.25A0,0,0,0,1,436.57,268.25Z" transform="translate(717.03 436.25) rotate(180)" style="fill:#ffdab0"/><line x1="280.45" y1="147" x2="180.14" y2="147" style="fill:none;stroke:#a68e73;stroke-miterlimit:10;stroke-width:0.5px"/><line x1="280.45" y1="149.87" x2="180.14" y2="149.87" style="fill:none;stroke:#a68e73;stroke-miterlimit:10;stroke-width:0.5px"/><line x1="280.45" y1="152.75" x2="180.14" y2="152.75" style="fill:none;stroke:#a68e73;stroke-miterlimit:10;stroke-width:0.5px"/><line x1="280.45" y1="155.63" x2="180.14" y2="155.63" style="fill:none;stroke:#a68e73;stroke-miterlimit:10;stroke-width:0.5px"/><line x1="280.45" y1="158.5" x2="180.14" y2="158.5" style="fill:none;stroke:#a68e73;stroke-miterlimit:10;stroke-width:0.5px"/><line x1="280.45" y1="161.38" x2="180.14" y2="161.38" style="fill:none;stroke:#a68e73;stroke-miterlimit:10;stroke-width:0.5px"/><path d="M441.47,265.83H546.05v6H441.47c-1.23,0-3.57,4-3.57,10.19s2.34,10.19,3.57,10.19H546.05v6H441.47c-4.63,0-8.38-7.26-8.38-16.23S436.84,265.83,441.47,265.83Z" transform="translate(-263.18 -127.88)" style="fill:#bd6400"/><path d="M437.9,296.75c-2.84-2.6-4.81-8.2-4.81-14.69s2-12.08,4.81-14.68" transform="translate(-263.18 -127.88)" style="fill:none;stroke:#f80;stroke-miterlimit:10;stroke-width:0.5px"/><line x1="96.36" y1="140.38" x2="168.22" y2="140.38" style="fill:none;stroke:#854600;stroke-miterlimit:10;stroke-width:0.5px"/><path d="M457.53,281.43l.17,7.7,1.16,4.28s-5.43,8.29-9.87,10.3c0,0-.65-2.39,2.37-7.64,2.2-3.83.82-14.64.82-14.64Z" transform="translate(-263.18 -127.88)" style="fill:#ff9caf"/><path d="M458.86,293.41l-1.12-4.14-2.24,1.35-.84-2-2.07.85c-.06,2.56-.37,5.11-1.23,6.61-3,5.25-2.37,7.64-2.37,7.64C453.43,301.7,458.86,293.41,458.86,293.41Z" transform="translate(-263.18 -127.88)" style="fill:#061c73"/><path d="M433.71,278.6l-1.51,7.46.19,4.52s-7,6.11-11.73,6.52c0,0-.11-2.52,3.94-6.54,2.94-2.93,4-13.79,4-13.79Z" transform="translate(-263.18 -127.88)" style="fill:#ff9caf"/><path d="M432.39,290.58l-.18-4.37-2.45.53-.37-2.21-2.17.1c-.62,2.44-1.47,4.79-2.62,5.93-4.05,4-3.94,6.54-3.94,6.54C425.36,296.69,432.39,290.58,432.39,290.58Z" transform="translate(-263.18 -127.88)" style="fill:#061c73"/><path d="M458.09,221.84v17H443.38l-8.68,41.94-8.18-2.4s4.58-35.4,6.64-43.93C435.54,224.68,440.54,221.84,458.09,221.84Z" transform="translate(-263.18 -127.88)" style="fill:#061c73"/><path d="M431.41,278.49l10.35-48a2.92,2.92,0,0,1,2.64-2.55h5" transform="translate(-263.18 -127.88)" style="fill:none;stroke:#0d3cfa;stroke-miterlimit:10;stroke-width:0.5px"/><path d="M441.34,248.74l2-9.86h14.71v-17c-12.54,0-18.68,1.45-22,5.86Z" transform="translate(-263.18 -127.88)" style="opacity:0.46;mix-blend-mode:multiply;fill:url(#linear-gradient-7)"/><path d="M485,221.47s3.55,17.26-6.12,17.26H459.23s.41,33.92-.63,44.22h-8.36s-4.55-42.48-4.95-48.55,1.92-12.93,10-12.93Z" transform="translate(-263.18 -127.88)" style="fill:#061c73"/><line x1="196.05" y1="110.05" x2="196.05" y2="104.65" style="fill:none;stroke:#0d3cfa;stroke-miterlimit:10;stroke-width:0.5px"/><line x1="198.87" y1="104.93" x2="197.35" y2="110.05" style="fill:none;stroke:#0d3cfa;stroke-miterlimit:10;stroke-width:0.5px"/><path d="M478.32,221.76v.73c0,2.17-1.4,3.93-3.13,3.93H455.65c-1.52,0-2.72,1.62-2.61,3.53L456,282.44" transform="translate(-263.18 -127.88)" style="fill:none;stroke:#0d3cfa;stroke-miterlimit:10;stroke-width:0.5px"/><path d="M484.53,182.1c2.62-4.44.39-7.64-1.38-9.43s-3.54-5.2-4.83-9.43-5.52-7.48-8.49-5.58a4.12,4.12,0,0,0-5.78,2.39c-1.86,4.33-.56,8.61-1,12.57s-2.67,9.08,0,13c3.17,4.67,8.07,2.33,10.87-.38S482.86,184.94,484.53,182.1Z" transform="translate(-263.18 -127.88)" style="fill:#061c73"/><path d="M466.54,184.92c-2.85,2.3-4.72,9.21-6.34,13.24s-5.89,14.91-5.89,14.91l-9.89,6.75s10-.81,12.8-2.77,10.29-19.38,10.29-19.38Z" transform="translate(-263.18 -127.88)" style="fill:#ff9caf"/><path d="M466.54,184.92c-2.56,2.06-4.33,7.84-5.84,11.92l2.47,10.33c2.33-4.79,4.34-9.5,4.34-9.5Z" transform="translate(-263.18 -127.88)" style="fill:url(#linear-gradient-8)"/><path d="M479.91,179.29s5.73,2.05,7.15,4.76-2.2,30.3-1.63,33.38,1.33,5.53-1.17,5.53H466.62c-2.54,0-3.88-1.52-3.53-3.74s2.59-4,3-9.26.65-7.75-.43-10.25-1-4.71,0-8.72a24.53,24.53,0,0,0,.91-6.07,37.67,37.67,0,0,1,5.78-4.12C474.69,179.61,478.31,178.62,479.91,179.29Z" transform="translate(-263.18 -127.88)" style="fill:#0d3cfa"/><path d="M464.15,216.57c-.18.34-.34.66-.49,1h21.79a.36.36,0,0,1,0-.11,4.62,4.62,0,0,1-.06-.86Z" transform="translate(-263.18 -127.88)" style="fill:#fff"/><path d="M466,210.27c0,.34-.07.66-.11,1h19.73c0-.31.05-.64.08-1Z" transform="translate(-263.18 -127.88)" style="fill:#fff"/><path d="M465,197.67c.06.33.14.65.23,1h21.49c0-.32.06-.65.08-1Z" transform="translate(-263.18 -127.88)" style="fill:#fff"/><path d="M465.55,191.37c-.08.33-.16.66-.23,1H487.2l.06-1Z" transform="translate(-263.18 -127.88)" style="fill:#fff"/><path d="M466.4,204c0,.31,0,.63,0,1h19.81c0-.32.05-.65.08-1Z" transform="translate(-263.18 -127.88)" style="fill:#fff"/><polygon points="199.38 95.37 178.32 95.37 175.04 73.14 196.11 73.14 199.38 95.37" style="fill:#738efa"/><path d="M453.1,212.13c.28,1.88-.71,3.4-2.2,3.4s-2.93-1.52-3.21-3.4.71-3.4,2.21-3.4S452.82,210.25,453.1,212.13Z" transform="translate(-263.18 -127.88)" style="fill:none;stroke:#fff;stroke-miterlimit:10;stroke-width:0.41707299999999997px"/><rect x="197.35" y="93.43" width="22.09" height="1.93" style="fill:#738efa"/><line x1="195.29" y1="73.91" x2="198.45" y2="95.37" style="fill:none;stroke:#fff;stroke-miterlimit:10;stroke-width:0.41707299999999997px"/><path d="M468,163.65s1.29-2.85,3.23-1,2.39,3.82,3.23,4.15.65-1.79,1.49-1.22.84,2.93,0,4.39c0,0,.91,6,2.59,7.88a18.86,18.86,0,0,0,2.59,2.52s-1.1,7.65-5.63,7.65c-3.37,0-4.73-2.93-5.21-4.42a1.29,1.29,0,0,1,.26-1.29,5.21,5.21,0,0,0,1.45-4.85,3.2,3.2,0,0,1-3.36-.66c-1.29-1.47-2-4.8-3.23-6.67C465.44,170.15,464.86,163,468,163.65Z" transform="translate(-263.18 -127.88)" style="fill:#ff9caf"/><path d="M481.16,180.39a18.86,18.86,0,0,1-2.59-2.52C476.89,176,476,170,476,170s-1.32,7-4,7.49a5.21,5.21,0,0,1-1.45,4.85,1.29,1.29,0,0,0-.26,1.29c.48,1.49,1.84,4.42,5.21,4.42C480.06,188,481.16,180.39,481.16,180.39Z" transform="translate(-263.18 -127.88)" style="fill:url(#linear-gradient-9)"/><path d="M486.78,183.6c1.87,2,4.81,27.76,4.29,31.72s-13.15,6.15-16.17,6.15H464c-1.68,0,3.49-2.33,5.56-1.84s15.7-6.75,15.7-6.75-2-14.39-2.42-18.1C482,187.3,484.91,181.58,486.78,183.6Z" transform="translate(-263.18 -127.88)" style="fill:#ff9caf"/><path d="M379.44,305.32s-.72,17.95-.72,20.19,8.7,5.61,8.7,7.23c0,.91-6.75,0-9.54,0s-5,.35-4.8-1.55.9-3.22.84-8.06-.85-17.81-.85-17.81Z" transform="translate(-263.18 -127.88)" style="fill:#ff9caf"/><path d="M379.48,326.84a6.6,6.6,0,0,0-2.05,2.26h-4a19,19,0,0,0-.35,2.09c-.16,1.9,2,1.55,4.8,1.55s9.54.91,9.54,0C387.42,331.42,381.61,328.93,379.48,326.84Z" transform="translate(-263.18 -127.88)" style="fill:#0d3cfa"/><path d="M394.37,305.29s-3.48,16.26-3.83,18.32,7.1,7.3,6.84,8.77c-.14.84-6.18-1.67-8.74-2.36s-4.6-.91-4.15-2.6,1.32-2.74,2-7.18,2-16.53,2-16.53Z" transform="translate(-263.18 -127.88)" style="fill:#ff9caf"/><path d="M391,325a5.32,5.32,0,0,0-2.24,1.57l-3.66-1a14.94,14.94,0,0,0-.65,1.83c-.45,1.69,1.6,1.91,4.15,2.6s8.6,3.2,8.74,2.36C397.59,331.17,392.65,327.45,391,325Z" transform="translate(-263.18 -127.88)" style="fill:#0d3cfa"/><path d="M390.64,211.19l.73,7.86s10.54,39.33,9.63,58c-.36,7.51-5.15,29.57-5.15,29.57h-8.5L391,276.78l-7.31-27.12-2.81,57h-8.65s-3.05-57.62-3.17-68,6.09-27.43,6.09-27.43Z" transform="translate(-263.18 -127.88)" style="fill:#061c73"/><line x1="120.5" y1="121.78" x2="121.87" y2="108.82" style="fill:none;stroke:#0d3cfa;stroke-miterlimit:10;stroke-width:0.5px"/><path d="M392.05,221.69c-.42-1.68-.68-2.64-.68-2.64l-.73-7.86H375.15a132.52,132.52,0,0,0-5.43,20.09C378,231.78,388,224.8,392.05,221.69Z" transform="translate(-263.18 -127.88)" style="opacity:0.46;mix-blend-mode:multiply;fill:url(#linear-gradient-10)"/><line x1="124.64" y1="174.88" x2="133.42" y2="174.88" style="fill:none;stroke:#0d3cfa;stroke-miterlimit:10;stroke-width:0.5px"/><line x1="108.86" y1="174.88" x2="117.64" y2="174.88" style="fill:none;stroke:#0d3cfa;stroke-miterlimit:10;stroke-width:0.5px"/><path d="M369.57,216a18.89,18.89,0,0,0,2.52,2.25c.5.16,3.8-1.66,4.64-1.6s-1.88,1.43-2.05,1.61a7.44,7.44,0,0,1,3.92,0c1.55.64-.88,2.32-1.36,2.45s-2.13,1.84-4.55,1.38-3.19-2.68-4.39-3.49S369.57,216,369.57,216Z" transform="translate(-263.18 -127.88)" style="fill:#ff9caf"/><path d="M392.72,166.4l-2.07-1.79s-2.16-3.53-3.49-3.94-4.73-.88-4.86-.19,3,.9,3,.9a2.28,2.28,0,0,1,.3,1.16,5.46,5.46,0,0,0,0,3.27c.55,1.2,3.4.88,4.31,1.57s1.81,1.46,1.81,1.46Z" transform="translate(-263.18 -127.88)" style="fill:#ff9caf"/><path d="M374.62,174.82c4.75-1.93,5.71-.74,9,0S399,180.14,399,180.14l-9-11.51,2.07-3.25s16,12.67,14.23,19.4c-1,3.9-16,.54-16,.54s.09,5.85-.17,8.35a39.76,39.76,0,0,0,.6,10.18c.69,3.91,2.42,9.46.35,9.46H374.79c-3.26,0-1.31-5.23-1.51-8.48s-3.47-13.66-3.47-13.66L360,205.7l10.35,10.51-1.48,3.36s-13.87-6.29-14.9-11.92,9.14-21.7,11.3-25.64S371.87,175.93,374.62,174.82Z" transform="translate(-263.18 -127.88)" style="fill:#ff2b4f"/><path d="M371.11,147.67c4.67-.12,6.71,1.81,8,3.91,2.13,3.41.14,8.37,1.34,12.85s1.63,7.2-3.2,9.15-7.81,3.16-10.35.7S369,147.72,371.11,147.67Z" transform="translate(-263.18 -127.88)" style="fill:#061c73"/><path d="M373.78,150c1.89.23,4,2.49,4.79,4s3,2.17,3.32,2.55-.56.81-.74,1.57.87,4.17.09,5.47-2.33,1.52-2.63,3.42a26.51,26.51,0,0,0,.91,8.23c.43.76,3.75,4,3,5.26s-2.35,1.52-4.32.7-4.86-2.43-5.77-2.65-1-1.63-.43-2.44.48-5.74.05-7.86-3.75-2.3-5.35-5.63c-1.9-4-.91-9.16.73-11.22S372,149.73,373.78,150Z" transform="translate(-263.18 -127.88)" style="fill:#ff9caf"/><path d="M372.06,168.21c.43,2.12.51,7-.05,7.86s-.47,2.22.43,2.44,3.8,1.84,5.77,2.65,3.59.6,4.32-.7-2.58-4.5-3-5.26a26.51,26.51,0,0,1-.91-8.23c.22-1.38,1.09-1.87,1.85-2.53-2.46,1.79-8.23,2-11.63-.54a.66.66,0,0,0-1.09.23C369.43,166,371.7,166.49,372.06,168.21Z" transform="translate(-263.18 -127.88)" style="fill:url(#linear-gradient-11)"/><path d="M369.12,148.05c2.86-1.12,5.48.17,5.22,4.39s-1.29,4.66-.69,8,1.51,8.29-.34,11.54-5.35,5.53-7.89,4.34-.52-5-.35-8.94-1-9.13-.22-13.72A7,7,0,0,1,369.12,148.05Z" transform="translate(-263.18 -127.88)" style="fill:#061c73"/><path d="M383.26,176.38l2.58,2.94s4.49,2.69,4.49,6" transform="translate(-263.18 -127.88)" style="fill:none;stroke:#8a2032;stroke-linecap:round;stroke-linejoin:round;stroke-width:0.5405139999999999px"/><path d="M367.43,180.85c2.38.24,4.79,6.76,2.38,10.32" transform="translate(-263.18 -127.88)" style="fill:none;stroke:#8a2032;stroke-linecap:round;stroke-linejoin:round;stroke-width:0.5405139999999999px"/></g></g></svg>