<svg xmlns="http://www.w3.org/2000/svg" viewBox="0 0 331.93 197.67"><g style="isolation:isolate"><g id="OBJECTS"><ellipse cx="165.96" cy="189.11" rx="165.96" ry="8.57" style="fill:#e5e5e5"/><path d="M378.76,297.21l-7.09-.86v39a14.92,14.92,0,0,0,14.92,14.92h34.19a14.92,14.92,0,0,0,14.92-14.92l-.42-39S378.76,296.39,378.76,297.21Z" transform="translate(-339.9 -160.11)" style="fill:#fddaba"/><ellipse cx="63.6" cy="136.04" rx="31.83" ry="4.32" style="fill:#7f4822"/><path d="M434.29,297.26c.68-.35,1-.72,1-1.1,0-2.39-14.26-4.32-31.84-4.32s-31.83,1.93-31.83,4.32c0,.38.36.75,1,1.1,3.58-1.86,16-3.22,30.79-3.22S430.71,295.4,434.29,297.26Z" transform="translate(-339.9 -160.11)" style="fill:#d8aa88"/><path d="M412.76,244.64l2.24-3.45s12.92-7.45,21.27-12.89,15.52-7.26,22.46-10.73a31.86,31.86,0,0,0,11.11-9.85S432,225.91,431.43,226.5s-16.85,11.77-17.06,12.12S412.76,244.64,412.76,244.64Z" transform="translate(-339.9 -160.11)" style="fill:#899c00"/><path d="M396.21,221.78s-9.35-24-10.71-30.14a116.2,116.2,0,0,0-5.56-16.57c-.25-.29.85-.39,5.6,6.19s13.56,21.42,14.82,27.1A90.37,90.37,0,0,1,402,234.49Z" transform="translate(-339.9 -160.11)" style="fill:#899c00"/><path d="M450.18,231.94s-2.8-5-12.76-4.64-23.25,11.67-26,17.15-2.07,15.84-2.07,15.84,23.78-12.62,24.07-12.87S450.18,231.94,450.18,231.94Z" transform="translate(-339.9 -160.11)" style="fill:#899c00"/><polygon points="64.48 73.11 69.13 63.09 71.66 63.88 65.1 74.48 64.48 73.11" style="fill:#777f08"/><path d="M409.72,221.93s5.49-23.08,14.43-33,15.71-15.92,18.25-16.1-1.46,20-10.19,28.16S409.72,221.93,409.72,221.93Z" transform="translate(-339.9 -160.11)" style="fill:#777f08"/><path d="M415,241.19s-2-14.68,4.59-22,17.35-11.2,25.11-13.61,19.66-2.08,25.14,2.11l-41,22.56S416.54,237.42,415,241.19Z" transform="translate(-339.9 -160.11)" style="fill:#777f08"/><path d="M388,222.08c-.8-.6-10.05-11.63-15-14.58s-7.81,3.1-7.81,3.1Z" transform="translate(-339.9 -160.11)" style="fill:#899c00"/><path d="M387.7,243a20.68,20.68,0,0,1,8.67,5.81c3.31,4.1,5,7.18,5.35,9.25l.18-5s-5.59-9.14-11.52-9.57Z" transform="translate(-339.9 -160.11)" style="fill:#777f08"/><path d="M389.58,260.14s10.27,9.21,11.57,11.44,1.78.32,1.78.32l0-2.17s-9-8.49-11.39-9.69Z" transform="translate(-339.9 -160.11)" style="fill:#777f08"/><path d="M343.33,232.18a30.26,30.26,0,0,1,12.11-4.11c6.85-.7,17.32-.54,23,1.33s12.9,6.48,13.53,11-.09,3.67-.09,3.67l-28.28-9.3Z" transform="translate(-339.9 -160.11)" style="fill:#899c00"/><path d="M350.37,237.27a46.5,46.5,0,0,1,21,2c11.77,3.76,19.61,12.7,20.94,19.18l-25.86-14.54Z" transform="translate(-339.9 -160.11)" style="fill:#777f08"/><path d="M344.88,238.26s7.12-3.52,17.15-.73,18.46,6.11,24.31,11.77,7.43,12.89,7.79,13.64c0,0-12.26-6.92-22.69-13.22S346.11,237.87,344.88,238.26Z" transform="translate(-339.9 -160.11)" style="fill:#899c00"/><path d="M341.22,234a5.08,5.08,0,0,1,1.51-2.59c1.08-.77,5-1.92,14.92-.66s13.65,2,19.9,5.49,12.14,7.64,14.35,7.92c0,0-10.89-2.54-17.27-4.34s-23-4.33-26.46-5.37S342,233.35,341.22,234Z" transform="translate(-339.9 -160.11)" style="fill:#777f08"/><path d="M396.13,238.16s-27-25-28.22-25.86-2.29-1.61-2.29-1.61a71.33,71.33,0,0,1,18,4.69c8.22,3.62,16.86,9,18.72,14.08s-1.09,7.39-2.5,7.83S396.13,238.16,396.13,238.16Z" transform="translate(-339.9 -160.11)" style="fill:#777f08"/><path d="M408.85,226.71s-7.22-8-6.51-15.53,11.19-17.26,18.36-18.53,11.35.16,11.35.16,5.42-1.18,6.34,1.3-1.27,13.19-9.19,21.07S412.74,227.55,408.85,226.71Z" transform="translate(-339.9 -160.11)" style="fill:#899c00"/><path d="M411.57,267s-7.07-8.2,2.23-19.26,17.31-18.06,26.41-19,10.46,2.75,16,.63c0,0-11.73,9.71-20.08,16.42S411.57,267,411.57,267Z" transform="translate(-339.9 -160.11)" style="fill:#777f08"/><path d="M390.56,232.75l4.75,4.26,6.55,12.59s1.42-2.25,1-2.82-9.2-15-9.2-15Z" transform="translate(-339.9 -160.11)" style="fill:#777f08"/><path d="M403.39,263.2l.22-.36c1.23-1.93,7.17-11,10.7-11.43l-.46,3s-5.3,1.54-9.51,12.19Z" transform="translate(-339.9 -160.11)" style="fill:#777f08"/><path d="M404.8,275.16s5.4-8.69,8.62-11.59l.48,1.66s-7.11,7.43-9.33,13.11l-.08-2.18-.15-1.21" transform="translate(-339.9 -160.11)" style="fill:#777f08"/><path d="M401.71,296.25h3.75v0a23.43,23.43,0,0,1-.37-4.82c0-2.88.24-2.06-.21-4.62s.28-13.23,0-17.4-.69-9.38-.27-12.78,6.68-9.72,6.68-9.72l-5.53-3.39-5.66,1.94s1.54,18.45,1.72,29.57C402,282,401.84,289.41,401.71,296.25Z" transform="translate(-339.9 -160.11)" style="fill:#777f08"/><path d="M404.23,255s-1.4-1.43-3.42-5.85-2.13-10.46-2.39-12.64,1.31-6.41,6.46-5.13,10.31,4.73,10.91,5.68,5-2.11,9.95.54,4.12,7.11-1.05,8.66-10.81,6.19-14,7.23a10.13,10.13,0,0,1-5.45.38Z" transform="translate(-339.9 -160.11)" style="fill:#899c00"/><path d="M432.68,297.84v30.05a14.92,14.92,0,0,1-14.93,14.92H383.57a14.91,14.91,0,0,1-12.27-6.43,14.9,14.9,0,0,0,14.87,14h34.19a15.13,15.13,0,0,0,15.34-15l-.42-39A4.06,4.06,0,0,1,432.68,297.84Z" transform="translate(-339.9 -160.11)" style="fill:#fddaba;opacity:0.30000000000000004;mix-blend-mode:multiply"/><path d="M552.68,194.1l24.16,150.67a4,4,0,0,0,4.61,3.33l24.47-3.93a4,4,0,0,0,3.34-4.6L584.8,187.11,583,188a47.2,47.2,0,0,1-30.63,4.29Z" transform="translate(-339.9 -160.11)" style="fill:#fff0cf"/><path d="M584.53,185.4l24.73,154.17a4,4,0,0,1-3.34,4.6l-24.47,3.93a4,4,0,0,1-4.61-3.33L552.12,190.6l-3.52.56,24.73,154.18A7.58,7.58,0,0,0,582,351.6l24.47-3.92a7.59,7.59,0,0,0,6.29-8.67L588,184.84Z" transform="translate(-339.9 -160.11)" style="fill:#ed1b24"/><path d="M605.49,341.49,581,345.42a4,4,0,0,1-4.61-3.33l.43,2.68a4,4,0,0,0,4.61,3.33l24.47-3.93a4,4,0,0,0,3.34-4.6l-.43-2.68A4,4,0,0,1,605.49,341.49Z" transform="translate(-339.9 -160.11)" style="fill:#243333"/><g style="mix-blend-mode:multiply"><path d="M581.66,341.41c-8-45.42-16.06-96-22.73-141.7,8,45.47,16.08,96.06,22.73,141.7Z" transform="translate(-339.9 -160.11)" style="fill:#fddaba"/></g><g style="mix-blend-mode:multiply"><path d="M586.7,338.45c-8-45.42-16.06-96-22.73-141.7,7.95,45.47,16.08,96.06,22.73,141.7Z" transform="translate(-339.9 -160.11)" style="fill:#fddaba"/></g><g style="mix-blend-mode:multiply"><path d="M592.17,341.16c-7.54-42.78-15.17-90.45-21.41-133.47,7.53,42.82,15.19,90.47,21.41,133.47Z" transform="translate(-339.9 -160.11)" style="fill:#fddaba"/></g><g style="mix-blend-mode:multiply"><path d="M603.74,338.59c-7.53-42.78-15.16-90.46-21.41-133.47,7.53,42.82,15.19,90.47,21.41,133.47Z" transform="translate(-339.9 -160.11)" style="fill:#fddaba"/></g><g style="mix-blend-mode:multiply"><path d="M596.56,329.7c-7.53-42.78-15.16-90.46-21.4-133.47,7.52,42.82,15.18,90.47,21.4,133.47Z" transform="translate(-339.9 -160.11)" style="fill:#fddaba"/></g><path d="M580.45,345.46a4,4,0,0,1-1.64-2.63L554.73,192.7q-1.17-.16-2.34-.39l.29,1.79,23.73,148A4,4,0,0,0,580.45,345.46Z" transform="translate(-339.9 -160.11)" style="fill:#fddaba;opacity:0.8;mix-blend-mode:multiply"/><path d="M607.89,342.23l-24.47,3.93a9.06,9.06,0,0,1-7-4.07l.43,2.68a4,4,0,0,0,4.61,3.33l24.47-3.93a3.41,3.41,0,0,0,.46-.1l.13-.05.31-.1.14-.07.28-.14.12-.07a2.25,2.25,0,0,0,.36-.24h0l.34-.3.08-.08a2.62,2.62,0,0,0,.22-.25l.09-.1.19-.27.06-.1a2.42,2.42,0,0,0,.21-.39A4,4,0,0,1,607.89,342.23Z" transform="translate(-339.9 -160.11)" style="fill:#243333;mix-blend-mode:multiply"/><path d="M593.19,194.56l24.17,150.67a4,4,0,0,0,4.61,3.33l24.46-3.93a4,4,0,0,0,3.34-4.6L625.32,187.57l-1.79.91a47.18,47.18,0,0,1-30.62,4.29Z" transform="translate(-339.9 -160.11)" style="fill:#fff0cf"/><path d="M625,185.86,649.77,340a4,4,0,0,1-3.34,4.6L622,348.56a4,4,0,0,1-4.61-3.33L592.63,191.06l-3.51.56L613.85,345.8a7.58,7.58,0,0,0,8.68,6.26L647,348.14a7.59,7.59,0,0,0,6.29-8.67L628.56,185.3Z" transform="translate(-339.9 -160.11)" style="fill:#fdb813"/><path d="M646,342l-24.46,3.93a4,4,0,0,1-4.61-3.33l.43,2.68a4,4,0,0,0,4.61,3.33l24.46-3.93a4,4,0,0,0,3.34-4.6l-.43-2.68A4,4,0,0,1,646,342Z" transform="translate(-339.9 -160.11)" style="fill:#243333"/><g style="mix-blend-mode:multiply"><path d="M622.18,341.87c-8-45.42-16.07-96-22.73-141.7,7.95,45.47,16.08,96.06,22.73,141.7Z" transform="translate(-339.9 -160.11)" style="fill:#fddaba"/></g><g style="mix-blend-mode:multiply"><path d="M627.22,338.91c-8-45.42-16.07-96-22.73-141.7,8,45.47,16.08,96.06,22.73,141.7Z" transform="translate(-339.9 -160.11)" style="fill:#fddaba"/></g><g style="mix-blend-mode:multiply"><path d="M632.68,341.62c-7.53-42.78-15.16-90.45-21.4-133.47,7.52,42.82,15.18,90.47,21.4,133.47Z" transform="translate(-339.9 -160.11)" style="fill:#fddaba"/></g><g style="mix-blend-mode:multiply"><path d="M644.26,339.05c-7.54-42.78-15.17-90.46-21.41-133.47,7.52,42.82,15.18,90.47,21.41,133.47Z" transform="translate(-339.9 -160.11)" style="fill:#fddaba"/></g><g style="mix-blend-mode:multiply"><path d="M637.08,330.16c-7.54-42.78-15.17-90.46-21.41-133.47,7.53,42.82,15.18,90.47,21.41,133.47Z" transform="translate(-339.9 -160.11)" style="fill:#fddaba"/></g><path d="M621,345.92a4,4,0,0,1-1.63-2.63L595.25,193.16q-1.18-.16-2.34-.39l.28,1.79,23.74,148A4,4,0,0,0,621,345.92Z" transform="translate(-339.9 -160.11)" style="fill:#fddaba;opacity:0.8;mix-blend-mode:multiply"/><path d="M648.4,342.69l-24.47,3.93a4,4,0,0,1-3-.7,4,4,0,0,1-4-3.37l.43,2.68a4,4,0,0,0,4.61,3.33l24.46-3.93a3.41,3.41,0,0,0,.46-.1l.14,0,.3-.1.14-.07.29-.14.12-.07.36-.24h0a3.24,3.24,0,0,0,.34-.29l.08-.08a2.73,2.73,0,0,0,.23-.25l.08-.1.19-.27.07-.1a3.58,3.58,0,0,0,.21-.39A3.94,3.94,0,0,1,648.4,342.69Z" transform="translate(-339.9 -160.11)" style="fill:#243333;mix-blend-mode:multiply"/><path d="M480.6,331.27V208.16A32.12,32.12,0,0,1,453,209V330.4A32.14,32.14,0,0,1,480.6,331.27Z" transform="translate(-339.9 -160.11)" style="fill:#fff0cf"/><rect x="138.3" y="45.38" width="4.79" height="128.45" style="fill:#ed1b24"/><rect x="110.02" y="45.38" width="4.79" height="128.45" style="fill:#ed1b24"/><polygon points="133.91 50.65 133.91 91.39 132.66 50.94 133.91 50.65" style="fill:#fddaba"/><path d="M468.51,233.77c.55,3.06,1.55,78.42.58,88.9C469.09,322.67,468.14,264.34,468.51,233.77Z" transform="translate(-339.9 -160.11)" style="fill:#fddaba"/><path d="M459.45,255.15c.5,2.37,1.41,60.8.53,68.92C460,324.07,459.11,278.85,459.45,255.15Z" transform="translate(-339.9 -160.11)" style="fill:#fddaba"/><path d="M464.87,211.72c.55,2.12,1.55,54.28.58,61.54C465.45,273.26,464.5,232.88,464.87,211.72Z" transform="translate(-339.9 -160.11)" style="fill:#fddaba"/><rect x="422.74" y="234.1" width="159.2" height="39.58" rx="2.73" transform="translate(-91.45 596.12) rotate(-90)" style="fill:#fdb813"/><rect x="146.32" y="14.17" width="7.32" height="159.2" style="fill:#fff;opacity:0.33"/><rect x="499.89" y="307.62" width="4.9" height="39.58" transform="translate(-164.97 669.64) rotate(-90)" style="fill:#fff0cf"/><rect x="499.89" y="167.11" width="4.9" height="39.58" transform="translate(-24.46 529.13) rotate(-90)" style="fill:#fff0cf"/><rect x="499.89" y="297.72" width="4.9" height="39.58" transform="translate(-155.07 659.74) rotate(-90)" style="fill:#fff0cf"/><rect x="491.1" y="214.24" width="22.48" height="30.1" transform="translate(-66.84 571.52) rotate(-90)" style="fill:#fff0cf"/><path d="M519.88,174.29a2.07,2.07,0,0,1,2.26,1.8V331.68a2.07,2.07,0,0,1-2.26,1.81H504l.05-159.2Z" transform="translate(-339.9 -160.11)" style="fill:#fdb813;opacity:0.30000000000000004;mix-blend-mode:multiply"/><rect x="456.35" y="241.1" width="159.2" height="25.57" rx="2.73" transform="translate(-57.83 629.73) rotate(-90)" style="fill:#005aab"/><rect x="533.5" y="314.63" width="4.9" height="25.57" transform="translate(-131.36 703.25) rotate(-90)" style="fill:#0072bb"/><rect x="533.5" y="178.51" width="4.9" height="25.57" transform="translate(4.76 567.13) rotate(-90)" style="fill:#0072bb"/><rect x="533.5" y="187.01" width="4.9" height="25.57" transform="translate(-3.74 575.64) rotate(-90)" style="fill:#0072bb"/><rect x="533.5" y="304.73" width="4.9" height="25.57" transform="translate(-121.46 693.35) rotate(-90)" style="fill:#0072bb"/><path d="M544,223.72a5.67,5.67,0,0,1-5.68-5.67h-4.72a5.67,5.67,0,0,1-5.67,5.67v75.46a5.67,5.67,0,0,1,5.67,5.67,5.47,5.47,0,0,1-.08.9h4.88a6.84,6.84,0,0,1-.08-.9,5.67,5.67,0,0,1,5.68-5.67h0V223.72Z" transform="translate(-339.9 -160.11)" style="fill:#0072bb"/><path d="M546.49,174.29h-7.06v159.2h7.06a2.07,2.07,0,0,0,2.25-1.81V176.09A2.07,2.07,0,0,0,546.49,174.29Z" transform="translate(-339.9 -160.11)" style="fill:#005aab;opacity:0.30000000000000004;mix-blend-mode:multiply"/><rect x="186.89" y="14.17" width="4.66" height="159.2" style="fill:#fff;opacity:0.33"/><path d="M385.86,336l-1.1-3.49,19.33-12.83a89.68,89.68,0,0,0,25-7.61c13-6.18,25.2-16,41-15.53s31.22,9.19,36.29,25.67l-.48,8.09s-69.56-.8-71.14-.64l-41.2,4Z" transform="translate(-339.9 -160.11)" style="fill:#fff0cf"/><path d="M506.05,330.81s1.35-11.7-1-21.36-11.8-17-22.58-21.87-42.7-20.76-49.51-38.27l-32,30.9s7.13,14.26,28.52,16.24S468.79,300,479,305.7c10.94,6.13,23.95,27.77,23.95,27.77Z" transform="translate(-339.9 -160.11)" style="fill:#fff6e3"/><path d="M384.76,332.5s13.94,2.06,33.27-5.38,33-17.59,52.29-14.74,35.48,18.51,35.48,18.51-5.85,4.94-7.91,7a22.53,22.53,0,0,1-5.54,3.65l-2.7.15A22.29,22.29,0,0,0,474.92,339c-8.88,1.27-14.26,4.28-22.19,5.55s-73.52,3.64-73.52,3.64Z" transform="translate(-339.9 -160.11)" style="fill:#fddaba"/><path d="M446.87,340.71s13.69-5.39,22.37-8,16.59-1.44,23.17,3.69c0,0,.27-.22-6.62-2s-8.91-.71-11.41-.71-17.73,4.3-20.93,5.45-9.92,2.94-10.27,3S446.87,340.71,446.87,340.71Z" transform="translate(-339.9 -160.11)" style="fill:#fddaba;mix-blend-mode:multiply"/><path d="M388.09,338s16.12-.33,28.1-4,25.34-12,35.61-13.1,12.38-.33,12.38-.33-9.88.92-14,1.71-15.86,7-20.73,9.15-5.07,1.38-10.86,3.42a73,73,0,0,1-18.83,3.62A102,102,0,0,1,388.09,338Z" transform="translate(-339.9 -160.11)" style="fill:#fddaba;mix-blend-mode:multiply"/><path d="M626.21,336l1.11-3.49L608,319.67a89.79,89.79,0,0,1-25-7.61c-13-6.18-25.19-16-41-15.53s-31.21,9.19-36.28,25.67l.47,8.09s69.56-.8,71.15-.64l41.2,4Z" transform="translate(-339.9 -160.11)" style="fill:#fff0cf"/><path d="M506,330.81s-1.35-11.7,1-21.36,11.81-17,22.58-21.87,42.71-20.76,49.52-38.27l32,30.9s-7.13,14.26-28.52,16.24-39.36,3.54-49.55,9.25c-11,6.13-24,27.77-24,27.77Z" transform="translate(-339.9 -160.11)" style="fill:#fff6e3"/><path d="M627.32,332.5s-13.94,2.06-33.28-5.38-32.95-17.59-52.29-14.74-35.95,18.51-35.95,18.51,6.32,4.94,8.38,7a22.51,22.51,0,0,0,5.55,3.65l2.69.15A22.31,22.31,0,0,1,537.16,339c8.87,1.27,14.26,4.28,22.18,5.55s73.53,3.64,73.53,3.64Z" transform="translate(-339.9 -160.11)" style="fill:#fddaba"/><path d="M565.21,340.71s-13.69-5.39-22.38-8-16.59-1.44-23.17,3.69c0,0-.26-.22,6.63-2s8.91-.71,11.41-.71,17.73,4.3,20.93,5.45,9.92,2.94,10.27,3S565.21,340.71,565.21,340.71Z" transform="translate(-339.9 -160.11)" style="fill:#fddaba;mix-blend-mode:multiply"/><path d="M624,338s-16.13-.33-28.11-4-25.34-12-35.61-13.1-12.37-.33-12.37-.33,9.87.92,14,1.71,15.87,7,20.74,9.15,5.07,1.38,10.86,3.42a73,73,0,0,0,18.82,3.62A102,102,0,0,0,624,338Z" transform="translate(-339.9 -160.11)" style="fill:#fddaba;mix-blend-mode:multiply"/><path d="M492.51,343.28s2.06-.24,6.33-4.2,5.47-5.63,7.29-5.78,10.14,10.14,15.21,9.9l1-.63s-6.74-5.39-10-8.24-4.67-3.52-6.26-3.52-4.33,2.51-6.18,4-6.07,6.71-10.4,7.29Z" transform="translate(-339.9 -160.11)" style="fill:#243333;mix-blend-mode:multiply"/><path d="M635.87,347l-115.62-5.46c-4.85,5.15-12.78,4.9-13.88,4.84h-.14c-1.1.06-9,.31-13.88-4.84L376.73,347l-.29,4.17,113.53-5s7.72,5.43,16.33,5.07c8.61.36,16.33-5.07,16.33-5.07l113.54,5Z" transform="translate(-339.9 -160.11)" style="fill:#ee1b24"/><path d="M465.54,320.51l.51,19.95,5.34-5.79,3.86,5.28.26-18.47S469.91,319.81,465.54,320.51Z" transform="translate(-339.9 -160.11)" style="fill:#ee1b24"/><path d="M575.67,351.05H548.12a1.88,1.88,0,0,1-1.88-1.79l-2.77-58.14h37.95l-3.88,58.17A1.87,1.87,0,0,1,575.67,351.05Z" transform="translate(-339.9 -160.11)" style="fill:#c38a60"/><polygon points="204.68 154.41 205.65 174.67 238.61 174.67 239.96 154.41 204.68 154.41" style="fill:#fff"/><polygon points="240.75 142.56 241.52 131.01 203.57 131.01 204.12 142.56 240.75 142.56" style="fill:#c38a60;opacity:0.5;mix-blend-mode:multiply"/><path d="M575.1,291.12l-3.87,58.17a1.89,1.89,0,0,1-1.88,1.76h6.32a1.87,1.87,0,0,0,1.87-1.76l3.88-58.17Z" transform="translate(-339.9 -160.11)" style="fill:#c38a60;opacity:0.5;mix-blend-mode:multiply"/><polygon points="211.76 131.01 208.87 131.11 211.02 190.93 215.74 190.93 213.58 131.01 211.76 131.01" style="fill:#fff;opacity:0.33"/><path d="M574.9,292.55H549.83a2.51,2.51,0,0,1-2.49-2.9l.8-5.24a2.52,2.52,0,0,1,2.49-2.14h23.18a2.53,2.53,0,0,1,2.47,2l1.09,5.24A2.52,2.52,0,0,1,574.9,292.55Z" transform="translate(-339.9 -160.11)" style="fill:#303439"/><path d="M549.83,292.55H574.9a2.52,2.52,0,0,0,2.47-3l-.45-2.16H547.69l-.35,2.29A2.51,2.51,0,0,0,549.83,292.55Z" transform="translate(-339.9 -160.11)" style="fill:#303439;opacity:0.30000000000000004;mix-blend-mode:multiply"/><path d="M581.5,299.11H543.29a1.68,1.68,0,0,1-1.66-1.93l1-6.92a1.68,1.68,0,0,1,1.66-1.42h35.72a1.68,1.68,0,0,1,1.64,1.34l1.44,6.91A1.68,1.68,0,0,1,581.5,299.11Z" transform="translate(-339.9 -160.11)" style="fill:#303439"/><rect x="557.75" y="161.71" width="10.68" height="10.68" rx="1.48" transform="translate(-56.86 -509.35) rotate(45)" style="fill:#ffac06"/><rect x="356.94" y="321.44" width="5.83" height="5.83" rx="1.48" transform="translate(-5.16 -319.57) rotate(45)" style="fill:#ffac06"/><path d="M393.47,281.49h0a1.49,1.49,0,0,1,0-2.09h0a1.48,1.48,0,0,1,2.1,0h0a1.47,1.47,0,0,1,0,2.09h0A1.48,1.48,0,0,1,393.47,281.49Z" transform="translate(-339.9 -160.11)" style="fill:#ffac06"/><rect x="654.15" y="306.45" width="5.22" height="5.22" rx="1.48" transform="translate(70.98 -533.98) rotate(45)" style="fill:#ffac06"/><path d="M368.41,278.93c1.25-.52,1.46-2.49,3.08-2.49,1.87,0,1.87,2.61,3.74,2.61s1.86-2.61,3.73-2.61" transform="translate(-339.9 -160.11)" style="fill:none;stroke:#005aab;stroke-miterlimit:10"/></g></g></svg>